# xmcd
#
# Track frame offsets:
#	150
#	18975
#	40172
#	60441
#	81088
#	94938
#	113013
#	133141
#	156604
#	177771
#	192439
#	210242
#	225012
#	244864
#
# Disc length: 3605 seconds
#
# Revision: 1
# Processed by: cddbd v1.4PL0 Copyright (c) Steve Scherf et al.
# Submitted via: EasyCDDAExtractor 5.1.0
#
DISCID=ad0e130e
DTITLE=compilation disc - Larger Then Life
DYEAR=1900
DGENRE=Country
TTITLE0=Fly Away Chick
TTITLE1=To Give
TTITLE2=The Pictures In The Album
TTITLE3=Deep Blue Evening
TTITLE4=Abandoned Zone
TTITLE5=Without You
TTITLE6=Whats Going On
TTITLE7=Beacuse Of You
TTITLE8=How Is The World
TTITLE9=The Balad For The Cop Azolai
TTITLE10=Get Out To The Window
TTITLE11=Don Quichote
TTITLE12=Will Meet
TTITLE13=Military Songs
EXTD=
EXTT0=
EXTT1=
EXTT2=
EXTT3=
EXTT4=
EXTT5=
EXTT6=
EXTT7=
EXTT8=
EXTT9=
EXTT10=
EXTT11=
EXTT12=
EXTT13=
PLAYORDER=
